<?xml version="1.0" encoding="utf-8"?>
<!-- Generator: Adobe Illustrator 19.0.0, SVG Export Plug-In . SVG Version: 6.00 Build 0)  -->
<svg version="1.1" id="Layer_1" xmlns="http://www.w3.org/2000/svg" xmlns:xlink="http://www.w3.org/1999/xlink" x="0px" y="0px"
	 viewBox="-240 353 69 63" style="enable-background:new -240 353 69 63;" xml:space="preserve">
<style type="text/css">
	.st0{fill:#373737;}
</style>
<path class="st0" d="M-176.5,366H-190v-5.6c0-3.9-2.7-7.4-6.4-7.4h-18.2c-3.7,0-6.4,3.5-6.4,7.4v5.6h-13.5c-3,0-5.5,2.5-5.5,5.5v39
	c0,3,2.5,5.5,5.5,5.5h58c3,0,5.5-2.5,5.5-5.5v-39C-171,368.5-173.5,366-176.5,366z M-215,360.4c0-0.6,0.1-1.4,0.4-1.4h18.2
	c0.3,0,0.4,0.8,0.4,1.4v5.6h-19V360.4z"/>
</svg>
