<?xml version="1.0" encoding="utf-8"?>
<!-- Generator: Adobe Illustrator 19.0.0, SVG Export Plug-In . SVG Version: 6.00 Build 0)  -->
<svg version="1.1" id="Layer_1" xmlns="http://www.w3.org/2000/svg" xmlns:xlink="http://www.w3.org/1999/xlink" x="0px" y="0px"
	 viewBox="158.1 -183.7 507.8 507.9" style="enable-background:new 158.1 -183.7 507.8 507.9;" xml:space="preserve">
<style type="text/css">
	.st0{fill:#373737;}
</style>
<g>
	<path class="st0" d="M655.8-173.5c-12.9-13-33.5-13.6-47.1-1.5L277.3,117.5c-5.6,5-5.9,13.7-0.6,19l72,72.7
		c5.3,5.3,13.9,5.1,18.9-0.6l289.7-334.5C669.3-139.7,668.7-160.5,655.8-173.5z"/>
	<path class="st0" d="M196,192.8c-17.1,18.5-30.8,79.8-37.7,115.9c-2,10.8,9.1,18.9,19,14.2c57-27.6,84.7-12.9,110.7-35.7
		c23.7-20.8,28.8-58.1,11.6-84.7C275.1,164.8,224.4,162.1,196,192.8z"/>
</g>
</svg>
