<?xml version="1.0" encoding="utf-8"?>
<!-- Generator: Adobe Illustrator 19.0.0, SVG Export Plug-In . SVG Version: 6.00 Build 0)  -->
<svg version="1.1"
	 id="Layer_1" xmlns:svg="http://www.w3.org/2000/svg" xmlns:rdf="http://www.w3.org/1999/02/22-rdf-syntax-ns#" xmlns:dc="http://purl.org/dc/elements/1.1/" xmlns:cc="http://creativecommons.org/ns#" xmlns:sodipodi="http://sodipodi.sourceforge.net/DTD/sodipodi-0.dtd" xmlns:inkscape="http://www.inkscape.org/namespaces/inkscape"
	 xmlns="http://www.w3.org/2000/svg" xmlns:xlink="http://www.w3.org/1999/xlink" x="0px" y="0px" viewBox="225 -193 1062.6 943.2"
	 style="enable-background:new 225 -193 1062.6 943.2;" xml:space="preserve">
<style type="text/css">
	.st0{fill:#373737;}
</style>
<path class="st0" d="M458.2-193c-26.1,0-47.2,21.1-47.2,47.2v31.5H272.2c-26.1,0-47.2,21.1-47.2,47.2V703c0,26,21.1,47.2,47.2,47.2
	h968.2c26.1,0,47.2-21.1,47.2-47.2V-67.3c0-26-21.1-47.2-47.2-47.2h-133.7v-31.5c0-26-21.1-47.2-47.2-47.2
	c-26.1,0-47.2,21.1-47.2,47.2v31.5h-507v-31.5C505.4-171.9,484.3-193,458.2-193z M319.3-20.1h91.7v31.4c0,26,21.1,47.2,47.2,47.2
	c26.1,0,47.2-21.1,47.2-47.2v-31.4h507v31.4c0,26,21.1,47.2,47.2,47.2c26.1,0,47.2-21.1,47.2-47.2v-31.4h86.5v184H319.3V-20.1
	L319.3-20.1z M319.3,211.1h873.9v444.8H319.3V211.1z M401.3,306.9v91.4h91.5v-91.4L401.3,306.9L401.3,306.9z M559.6,306.9v91.4h91.5
	v-91.4L559.6,306.9L559.6,306.9z M718,306.9v91.4h91.5v-91.4L718,306.9L718,306.9z M876.3,306.9v91.4h91.6v-91.4L876.3,306.9
	L876.3,306.9z M1034.8,306.9v91.4h91.5v-91.4L1034.8,306.9L1034.8,306.9z M401.3,453.9v91.5h91.5v-91.5H401.3z M559.6,453.9v91.5
	h91.5v-91.5H559.6z M718,453.9v91.5h91.5v-91.5H718z M876.3,453.9v91.5h91.6v-91.5H876.3z M1034.8,453.9v91.5h91.5v-91.5H1034.8
	L1034.8,453.9z"/>
</svg>
