<?xml version="1.0" encoding="utf-8"?>
<!-- Generator: Adobe Illustrator 19.0.0, SVG Export Plug-In . SVG Version: 6.00 Build 0)  -->
<svg version="1.1" id="Layer_1" xmlns="http://www.w3.org/2000/svg" xmlns:xlink="http://www.w3.org/1999/xlink" x="0px" y="0px"
	 viewBox="-254.6 340.8 99.2 86.4" style="enable-background:new -254.6 340.8 99.2 86.4;" xml:space="preserve">
<style type="text/css">
	.st0{fill:#373737;}
</style>
<g>
	<path class="st0" d="M-205,340.8c-27.4,0-49.6,18.5-49.6,41.3c0,13,7.3,24.6,18.6,32.2c4.3,2.9-6.1,12.8-6.1,12.8
		s20.8-5.9,23.9-5.2c4.2,1,8.6,1.5,13.2,1.5c27.4,0,49.6-18.5,49.6-41.3C-155.4,359.3-177.6,340.8-205,340.8z M-230.1,391.8
		c-4.3,0-7.8-3.5-7.8-7.8c0-4.3,3.5-7.8,7.8-7.8s7.8,3.5,7.8,7.8C-222.4,388.3-225.8,391.8-230.1,391.8z M-205,391.8
		c-4.3,0-7.8-3.5-7.8-7.8c0-4.3,3.5-7.8,7.8-7.8c4.3,0,7.8,3.5,7.8,7.8C-197.2,388.3-200.7,391.8-205,391.8z M-179.9,391.8
		c-4.3,0-7.8-3.5-7.8-7.8c0-4.3,3.5-7.8,7.8-7.8c4.3,0,7.8,3.5,7.8,7.8C-172.1,388.3-175.6,391.8-179.9,391.8z"/>
</g>
</svg>
