<?xml version="1.0" encoding="utf-8"?>
<!-- Generator: Adobe Illustrator 19.0.0, SVG Export Plug-In . SVG Version: 6.00 Build 0)  -->
<svg version="1.1" id="Layer_1" xmlns="http://www.w3.org/2000/svg" xmlns:xlink="http://www.w3.org/1999/xlink" x="0px" y="0px"
	 viewBox="-287.3 380.5 28.5 25" style="enable-background:new -287.3 380.5 28.5 25;" xml:space="preserve">
<style type="text/css">
	.st0{fill:#373737;stroke:#373737;stroke-width:0.5;stroke-miterlimit:10;}
</style>
<path class="st0" d="M-283.8,395.1c-0.1,0.1-0.2,0.1-0.4,0.1s-0.3,0-0.4-0.1c-1.6-1.6-2.5-3.7-2.5-6s0.9-4.4,2.5-6
	c2.9-2.9,7.4-3.3,10.7-1c0.2,0.2,0.3,0.5,0.1,0.7c-0.2,0.2-0.5,0.3-0.7,0.1c-2.9-2-6.9-1.6-9.4,0.9c-1.4,1.4-2.2,3.3-2.2,5.3
	s0.8,3.9,2.2,5.3C-283.6,394.6-283.6,394.9-283.8,395.1z M-261.2,394.9c0.1,0.2,0.1,0.5,0.1,0.7c0,0.6-0.2,1.1-0.6,1.5
	c-0.4,0.4-0.9,0.6-1.5,0.6c-0.1,0-0.1,0-0.2,0c0,0.6-0.1,1.2-0.6,1.7c-0.4,0.4-0.9,0.6-1.5,0.6c-0.1,0-0.1,0-0.2,0
	c0,0.6-0.1,1.2-0.6,1.7c-0.4,0.4-0.9,0.6-1.5,0.6c-0.1,0-0.1,0-0.2,0c0,0.6-0.1,1.2-0.6,1.7c-0.4,0.4-0.9,0.6-1.5,0.6
	c-0.5,0-1.1-0.2-1.5-0.6l-0.9-0.9c-0.1,0.4-0.3,0.7-0.5,1l-0.7,0.7c-0.4,0.4-0.9,0.6-1.5,0.6s-1.1-0.2-1.5-0.6
	c-0.5-0.5-0.6-1.1-0.6-1.7c-0.1,0-0.1,0-0.2,0c-0.5,0-1.1-0.2-1.5-0.6c-0.5-0.5-0.6-1.1-0.6-1.7c-0.1,0-0.1,0-0.2,0
	c-0.5,0-1.1-0.2-1.5-0.6c-0.5-0.5-0.6-1.1-0.6-1.7c-0.1,0-0.1,0-0.2,0c-0.6,0-1.1-0.2-1.5-0.6c-0.8-0.8-0.8-2.1,0-3l0.7-0.7
	c0.4-0.4,0.9-0.6,1.5-0.6c0,0,0,0,0,0c0.6,0,1.1,0.2,1.5,0.6c0.4,0.4,0.6,0.9,0.6,1.5c0,0.1,0,0.1,0,0.2c0.6,0,1.2,0.1,1.7,0.6
	c0.4,0.4,0.6,0.9,0.6,1.5c0,0.1,0,0.1,0,0.2c0.6,0,1.2,0.1,1.7,0.6c0.5,0.5,0.6,1.1,0.6,1.7c0.6,0,1.2,0.1,1.7,0.6
	c0,0,0,0.1,0.1,0.1c0,0,0,0,0,0l2,2c0.4,0.4,1.1,0.4,1.5,0c0.4-0.4,0.4-1.1,0-1.5l-5-5c-0.2-0.2-0.2-0.5,0-0.7s0.5-0.2,0.7,0l5,5
	c0.4,0.4,1.1,0.4,1.5,0c0.4-0.4,0.4-1.1,0-1.5l-5-5c-0.2-0.2-0.2-0.5,0-0.7s0.5-0.2,0.7,0l5,5c0.4,0.4,1.1,0.4,1.5,0
	c0.4-0.4,0.4-1.1,0-1.5l-5-5c-0.2-0.2-0.2-0.5,0-0.7s0.5-0.2,0.7,0l5,5c0.4,0.4,1.1,0.4,1.5,0c0.2-0.2,0.3-0.5,0.3-0.8
	c0-0.3-0.1-0.6-0.3-0.8l-7.8-7.8l-4,4c-1.4,1.4-3.6,1.4-5,0c-0.6-0.6-0.6-1.5,0-2.1l5.8-5.8c1.6-1.6,3.7-2.5,6-2.5
	c2.3,0,4.4,0.9,6,2.5C-258.3,386.5-258.2,391.6-261.2,394.9z M-280.9,397.2l0.7-0.7c0.2-0.2,0.3-0.5,0.3-0.8c0-0.3-0.1-0.6-0.3-0.8
	c-0.2-0.2-0.5-0.3-0.8-0.3c-0.3,0-0.6,0.1-0.8,0.3l-0.7,0.7c-0.4,0.4-0.4,1.1,0,1.5C-282,397.6-281.3,397.6-280.9,397.2z
	 M-278.7,399.5l0.7-0.7c0.2-0.2,0.3-0.5,0.3-0.8c0-0.3-0.1-0.6-0.3-0.8s-0.5-0.3-0.8-0.3s-0.6,0.1-0.8,0.3l-0.7,0.7
	c-0.4,0.4-0.4,1.1,0,1.5S-279.1,399.9-278.7,399.5z M-276.4,401.7l0.7-0.7c0.2-0.2,0.3-0.5,0.3-0.8c0-0.3-0.1-0.6-0.3-0.8
	c-0.2-0.2-0.5-0.3-0.8-0.3s-0.6,0.1-0.8,0.3l-0.7,0.7c-0.4,0.4-0.4,1.1,0,1.5S-276.9,402.1-276.4,401.7z M-273.5,401.7
	c-0.2-0.2-0.5-0.3-0.8-0.3s-0.6,0.1-0.8,0.3l-0.7,0.7c-0.4,0.4-0.4,1.1,0,1.5s1.1,0.4,1.5,0l0.7-0.7
	C-273.1,402.8-273.1,402.1-273.5,401.7z M-262.2,384c-1.4-1.4-3.3-2.2-5.3-2.2c-2,0-3.9,0.8-5.3,2.2l-5.8,5.8
	c-0.2,0.2-0.2,0.5,0,0.6c1,1,2.6,1,3.6,0l4.4-4.4c0.1-0.1,0.2-0.1,0.4-0.1s0.3,0.1,0.4,0.1l8,8C-259.3,391.1-259.4,386.7-262.2,384z
	"/>
</svg>
