<?xml version="1.0" encoding="utf-8"?>
<!-- Generator: Adobe Illustrator 19.0.0, SVG Export Plug-In . SVG Version: 6.00 Build 0)  -->
<svg version="1.1" id="Layer_1" xmlns="http://www.w3.org/2000/svg" xmlns:xlink="http://www.w3.org/1999/xlink" x="0px" y="0px"
	 viewBox="-1403 980.3 12 19.9" style="enable-background:new -1403 980.3 12 19.9;" xml:space="preserve">
<style type="text/css">
	.st0{fill:#FFFFFF;}
</style>
<path class="st0" d="M-1391,994.3h-2.3l-1.6-6.9c0.6-0.6,0.9-1.3,0.9-2.1c0-1.3-0.8-2.4-2-2.8v-2.2h-2v2.2c-1.2,0.4-2,1.5-2,2.8
	c0,0.8,0.3,1.5,0.8,2.1l-1.5,6.9h-2.3v2h1.8l-0.8,3.5l2,0.4l0.9-4h4.3l0.9,4l2-0.4l-0.9-3.5h1.8V994.3z M-1397,984.3
	c0.6,0,1,0.4,1,1s-0.4,1-1,1s-1-0.4-1-1S-1397.6,984.3-1397,984.3z M-1398.7,994.3l1.4-6c0.1,0,0.2,0,0.3,0s0.2,0,0.3,0l1.4,6
	H-1398.7z"/>
</svg>
