<?xml version="1.0" encoding="utf-8"?>
<!-- Generator: Adobe Illustrator 19.0.0, SVG Export Plug-In . SVG Version: 6.00 Build 0)  -->
<svg version="1.1" id="Layer_1" xmlns="http://www.w3.org/2000/svg" xmlns:xlink="http://www.w3.org/1999/xlink" x="0px" y="0px"
	 viewBox="-486.4 721 49.7 60" style="enable-background:new -486.4 721 49.7 60;" xml:space="preserve">
<style type="text/css">
	.st0{fill:#373737;}
</style>
<title>Artboard 7</title>
<path class="st0" d="M-481.5,781c-2.5,0.2-4.7-1.6-4.9-4.1c-0.2-2.5,1.6-4.7,4.1-4.9c0.3,0,0.6,0,0.8,0h17.9
	c2.5-0.2,4.7,1.6,4.9,4.1c0.2,2.5-1.6,4.7-4.1,4.9c-0.3,0-0.6,0-0.8,0H-481.5z M-437.1,759.5c0-2.5-2-4.5-4.5-4.5h-39.9
	c-2.5,0.2-4.3,2.4-4.1,4.9c0.2,2.2,1.9,3.9,4.1,4.1h39.9C-439.1,764-437.1,762-437.1,759.5z M-441.6,738h-39.9
	c-2.5-0.2-4.7,1.6-4.9,4.1c-0.2,2.5,1.6,4.7,4.1,4.9c0.3,0,0.6,0,0.8,0h39.9c2.5,0.2,4.7-1.6,4.9-4.1c0.2-2.5-1.6-4.7-4.1-4.9
	C-441.1,738-441.3,738-441.6,738z M-486.1,725.5c0,2.5,2,4.5,4.5,4.5h39.9c2.5,0.2,4.7-1.6,4.9-4.1c0.2-2.5-1.6-4.7-4.1-4.9
	c-0.3,0-0.6,0-0.8,0h-39.9C-484,721-486,723-486.1,725.5z"/>
</svg>
