<?xml version="1.0" encoding="utf-8"?>
<!-- Generator: Adobe Illustrator 19.0.0, SVG Export Plug-In . SVG Version: 6.00 Build 0)  -->
<svg version="1.1"
	 id="Layer_1" xmlns:svg="http://www.w3.org/2000/svg" xmlns:rdf="http://www.w3.org/1999/02/22-rdf-syntax-ns#" xmlns:dc="http://purl.org/dc/elements/1.1/" xmlns:cc="http://creativecommons.org/ns#" xmlns:sodipodi="http://sodipodi.sourceforge.net/DTD/sodipodi-0.dtd" xmlns:inkscape="http://www.inkscape.org/namespaces/inkscape"
	 xmlns="http://www.w3.org/2000/svg" xmlns:xlink="http://www.w3.org/1999/xlink" x="0px" y="0px" viewBox="-78 36.6 453.3 577.1"
	 style="enable-background:new -78 36.6 453.3 577.1;" xml:space="preserve">
<style type="text/css">
	.st0{fill:#373737;}
</style>
<g>
	<path class="st0" d="M82.8,290.3h219.4c6.6,0,11.9-4.8,11.9-10.9c0-5.9-5.3-10.9-11.9-10.9H82.8c-6.5,0-11.8,4.9-11.8,10.9
		C70.9,285.4,76.3,290.3,82.8,290.3z"/>
	<path class="st0" d="M314,341.4c0-5.9-5.3-10.9-11.9-10.9H82.8c-6.5,0-11.8,4.8-11.8,10.9c0,5.9,5.3,10.9,11.8,10.9h219.4
		C308.7,352.2,314,347.4,314,341.4z"/>
	<path class="st0" d="M273.1,395.4c-10.1,0-18.2,7.5-18.2,16.5c0,9.2,8.1,16.6,18.2,16.6c10,0,18.1-7.5,18.1-16.6
		S283.1,395.4,273.1,395.4z"/>
	<path class="st0" d="M70.9,217.5c0,5.9,5.3,10.9,11.8,10.9h219.4c6.6,0,11.9-4.9,11.9-10.9c0-6-5.3-10.9-11.9-10.9H82.8
		C76.3,206.6,70.9,211.5,70.9,217.5z"/>
	<path class="st0" d="M247,36.6H39.5c-17.3,0-31.4,14.1-31.4,31.5v54.8h-54.8c-17.4,0-31.4,14.1-31.4,31.5v428
		c0,17.3,14,31.5,31.4,31.5h304.4c8.6,0,16.5-3.5,22.1-9.2c5.7-5.7,9.3-13.6,9.3-22.2v-54.8h54.8v-0.1h0l0,0v0
		c8.6,0,16.5-3.5,22.2-9.2c5.7-5.7,9.2-13.6,9.2-22.2V164.9L247,36.6z M251.8,564.1c0,3.3-1.4,6.4-3.6,8.6c-2.2,2.2-5.3,3.6-8.6,3.6
		H-28.6c-6.6,0-12.2-5.5-12.2-12.2V172.3c0-6.7,5.5-12.2,12.2-12.2H8.1v6.4v329.6c0.1,17.2,14.2,31.3,31.5,31.3h212.3V564.1z
		 M338.1,477.9c0,3.4-1.5,6.4-3.7,8.6c-2.1,2.2-5.3,3.6-8.6,3.6H57.7c-3.4,0-6.4-1.4-8.6-3.6c-2.1-2.2-3.5-5.3-3.5-8.6V86.1
		c0-3.3,1.4-6.4,3.5-8.6c2.2-2.2,5.3-3.6,8.6-3.6h175v57.2c0,26.5,21.6,48.1,48.3,48.1h57.2V477.9z"/>
	<path class="st0" d="M306.5,381.5c-8.6-7.8-20.4-12.7-33.4-12.7c-13,0-24.8,4.8-33.4,12.7c-8.6,7.8-13.9,18.6-13.9,30.5
		c0,11.9,5.3,22.7,13.9,30.5c8.6,7.8,20.4,12.7,33.4,12.7c13,0,24.8-4.8,33.4-12.7c8.6-7.8,13.8-18.7,13.8-30.5
		S315.1,389.3,306.5,381.5z M294.5,431.5c-5.5,5-13.1,8.1-21.5,8.1c-8.5,0-16-3.1-21.5-8.1c-5.5-5-8.8-11.9-8.8-19.6
		s3.4-14.6,8.8-19.6c5.5-5,13.1-8.1,21.5-8.1c8.4,0,16,3,21.5,8.1c5.5,5,8.8,12,8.8,19.6C303.4,419.6,300,426.6,294.5,431.5z"/>
</g>
</svg>
