<?xml version="1.0" encoding="utf-8"?>
<!-- Generator: Adobe Illustrator 19.0.0, SVG Export Plug-In . SVG Version: 6.00 Build 0)  -->
<svg version="1.1" id="Layer_1" xmlns="http://www.w3.org/2000/svg" xmlns:xlink="http://www.w3.org/1999/xlink" x="0px" y="0px"
	 viewBox="-289 378.6 32 28.8" style="enable-background:new -289 378.6 32 28.8;" xml:space="preserve">
<style type="text/css">
	.st0{fill:#373737;}
</style>
<g>
	<path class="st0" d="M-271.6,386.2l-1.4,1.3l-1.4-1.3c-0.3-0.3-0.7-0.4-1.2-0.4c-0.5,0-0.9,0.2-1.2,0.5c-0.7,0.8-0.7,2,0,2.7
		l3.8,4.2l3.8-4.2c0.7-0.8,0.7-2,0-2.8C-269.8,385.6-270.9,385.6-271.6,386.2z"/>
	<path class="st0" d="M-289,378.6v22.3h7.2v6.5l8-6.5h16.8v-22.3H-289z M-267.7,390.4l-5.2,5.8l-5.3-5.8c-1.4-1.5-1.4-3.9,0-5.5
		c0.7-0.7,1.6-1.1,2.7-1.1c1,0,1.9,0.4,2.6,1c0.7-0.7,1.6-1,2.6-1c1,0,2,0.4,2.7,1.1C-266.3,386.4-266.3,388.8-267.7,390.4z"/>
</g>
</svg>
