<?xml version="1.0" encoding="utf-8"?>
<svg version="1.1" id="Layer_1" xmlns="http://www.w3.org/2000/svg" xmlns:xlink="http://www.w3.org/1999/xlink" x="0px" y="0px"
	 viewBox="-235.9 353.1 61.8 61.8" style="enable-background:new -235.9 353.1 61.8 61.8;" xml:space="preserve">
<style type="text/css">
	.st0{fill:#DA3B53;}
</style>
<g>
	<path class="st0" d="M-183.2,369.8c2.1-2.1,2.1-5.5,0-7.6c-2.1-2.1-5.5-2.1-7.6,0c-1.6,1.6-2,4-1.1,6l-2.5,2.5
		c-2.4-2-5.4-3.3-8.7-3.6v-3.6c2-0.8,3.5-2.7,3.5-5c0-3-2.4-5.4-5.4-5.4s-5.4,2.4-5.4,5.4c0,2.3,1.5,4.3,3.5,5v3.6
		c-3.3,0.4-6.3,1.7-8.7,3.6l-2.5-2.5c0.3-0.7,0.5-1.4,0.5-2.2c0-3-2.4-5.4-5.4-5.4s-5.4,2.4-5.4,5.4s2.4,5.4,5.4,5.4
		c0.8,0,1.6-0.2,2.2-0.5l2.5,2.5c-2,2.5-3.3,5.6-3.7,9h-3.5c-0.8-2-2.7-3.5-5-3.5c-3,0-5.4,2.4-5.4,5.4s2.4,5.4,5.4,5.4
		c2.3,0,4.3-1.5,5-3.5h3.6c0.4,3.2,1.7,6,3.6,8.4l-2.5,2.5c-0.7-0.3-1.4-0.5-2.2-0.5c-3,0-5.4,2.4-5.4,5.4s2.4,5.4,5.4,5.4
		s5.4-2.4,5.4-5.4c0-0.8-0.2-1.6-0.5-2.2l2.5-2.5c2.4,2,5.4,3.3,8.7,3.6v3.6c-2,0.8-3.5,2.7-3.5,5c0,3,2.4,5.4,5.4,5.4
		s5.4-2.4,5.4-5.4c0-2.3-1.5-4.3-3.5-5v-3.6c3.3-0.4,6.3-1.7,8.7-3.6l2.5,2.5c-0.3,0.7-0.5,1.4-0.5,2.2c0,3,2.4,5.4,5.4,5.4
		s5.4-2.4,5.4-5.4s-2.4-5.4-5.4-5.4c-0.8,0-1.6,0.2-2.2,0.5l-2.5-2.5c1.9-2.4,3.2-5.3,3.6-8.4h3.7c0.8,1.9,2.7,3.2,4.9,3.2
		c3,0,5.4-2.4,5.4-5.4s-2.4-5.4-5.4-5.4c-2.4,0-4.5,1.6-5.1,3.8h-3.4c-0.3-3.4-1.6-6.5-3.7-9l2.5-2.5
		C-187.3,371.8-184.9,371.4-183.2,369.8z M-205,396.9c-0.5,0-1,0-1.4-0.1l1-5.8c-1.7-2.4,0.1-2.5,0.4-2.5s2.1,0.1,0.4,2.5l1,5.8
		C-204,396.9-204.5,396.9-205,396.9z M-195.2,392.4v-0.3c0-0.6-0.3-1.1-0.7-1.5c-2.5-2.1-5.2-3.4-5.7-3.7c-0.1,0-0.1-0.1-0.1-0.2
		c0-0.3,0-1.2,0-1.7c0.2-0.5,0.4-1.1,0.5-1.6c0.2,0.2,0.6,0.1,1-1.4c0.3-1.2,0.1-1.6-0.2-1.7c0.9-4.5-1.2-4.6-1.2-4.6
		s-0.3-0.6-1.2-1.1c-0.6-0.3-1.4-0.6-2.4-0.5c-0.3,0-0.7,0.1-1,0.2l0,0c-0.4,0.1-0.7,0.3-1,0.5c-0.4,0.2-0.8,0.5-1.1,0.9
		c-0.5,0.5-1,1.2-1.2,2c-0.2,0.7-0.2,1.5,0.1,2.3c-0.4,0-0.8,0.2-0.4,1.7c0.3,1.1,0.6,1.4,0.8,1.4c0.1,0.6,0.3,1.3,0.7,2v1v0.4
		c0,0.1,0,0.1-0.1,0.2c-0.5,0.3-3.2,1.6-5.7,3.7c-0.4,0.4-0.7,0.9-0.7,1.5v0.3c-1.9-2.3-3.1-5.2-3.1-8.4c0-7.1,5.8-12.9,12.9-12.9
		c7.1,0,12.9,6,12.9,13.1C-192.1,387.2-193.3,390.2-195.2,392.4z"/>
</g>
</svg>
