<?xml version="1.0" encoding="utf-8"?>
<!-- Generator: Adobe Illustrator 19.0.0, SVG Export Plug-In . SVG Version: 6.00 Build 0)  -->
<svg version="1.1" id="Layer_1" xmlns="http://www.w3.org/2000/svg" xmlns:xlink="http://www.w3.org/1999/xlink" x="0px" y="0px"
	 viewBox="-234.8 335.1 59.7 57.5" style="enable-background:new -234.8 335.1 59.7 57.5;" xml:space="preserve">
<style type="text/css">
	.st0{fill:#373737;}
</style>
<path class="st0" d="M-191.8,388.2c0.8-2.6,3.2-4.3,5.9-4.3c3.4,0.1,6.2-2.6,6.2-6c0-0.7-0.1-1.4-0.3-2.1c-0.9-2.6,0-5.4,2.3-7
	c2.8-2,3.4-5.8,1.5-8.5c-0.4-0.6-0.9-1.1-1.5-1.5c-2.2-1.6-3.1-4.4-2.3-7c1.1-3.2-0.6-6.7-3.8-7.8c-0.7-0.2-1.4-0.3-2.1-0.3
	c-2.7,0-5.1-1.7-5.9-4.3l0,0c-1-3.2-4.4-5-7.7-4c-0.7,0.2-1.3,0.5-1.8,0.9c-2.2,1.6-5.1,1.6-7.3,0c-2.7-2-6.6-1.5-8.6,1.2
	c-0.4,0.6-0.7,1.2-0.9,1.8l0,0c-0.8,2.6-3.2,4.3-5.9,4.3c-3.4-0.1-6.2,2.6-6.3,6c0,0.7,0.1,1.5,0.3,2.2c0.9,2.6,0,5.4-2.3,7
	c-2.8,2-3.4,5.8-1.5,8.5c0.4,0.6,0.9,1.1,1.5,1.5c2.2,1.6,3.1,4.4,2.3,7c-1.1,3.2,0.6,6.7,3.8,7.8c0.7,0.2,1.4,0.3,2.1,0.3
	c2.7,0,5.1,1.7,5.9,4.3c1,3.2,4.4,5,7.7,4c0.7-0.2,1.3-0.5,1.8-0.9c2.2-1.6,5.1-1.6,7.3,0c2.7,2,6.6,1.5,8.6-1.2
	C-192.4,389.5-192,388.9-191.8,388.2z M-198.7,372.7c-0.5,0.4-1.1,0.4-1.6,0.1l-4.6-2.4l-4.6,2.4c-0.8,0.4-1.7,0.1-2.1-0.6
	c-0.2-0.3-0.2-0.7-0.2-1l0.9-5.1l-3.7-3.6c-0.6-0.6-0.6-1.6,0-2.2c0.2-0.2,0.6-0.4,0.9-0.5l5.2-0.8l2.3-4.7c0.4-0.8,1.3-1.1,2.1-0.7
	c0.3,0.2,0.6,0.4,0.7,0.7l2.3,4.7l5.2,0.8c0.9,0.1,1.4,0.9,1.3,1.8c0,0.3-0.2,0.7-0.5,0.9l-3.7,3.7l0.9,5.1
	C-198,371.8-198.3,372.4-198.7,372.7z"/>
</svg>
