<?xml version="1.0" encoding="utf-8"?>
<!-- Generator: Adobe Illustrator 19.0.0, SVG Export Plug-In . SVG Version: 6.00 Build 0)  -->
<svg version="1.1" id="Layer_1" xmlns="http://www.w3.org/2000/svg" xmlns:xlink="http://www.w3.org/1999/xlink" x="0px" y="0px"
	 viewBox="-49 102.1 512 461.7" style="enable-background:new -49 102.1 512 461.7;" xml:space="preserve">
<style type="text/css">
	.st0{fill:#373737;}
</style>
<title>like</title>
<path class="st0" d="M104.4,548.2c-0.4-34.5-0.4-69-0.4-103.5s0.1-69,0.4-103.5c0,4.6,0.1-17.2,0.4-31.4c-42.6,0-85.2,0-127.8,0
	c-10.8,0-19.2,3.9-23.9,14.1c-0.8,1.6-1.4,3.2-2.1,4.9v217.7c2,3.5,3.5,7.3,6.1,10.3c4.1,4.9,9.9,7,16.3,7c43.7,0,87.4,0.1,131.1,0
	C104.4,556.3,104.4,549.8,104.4,548.2z"/>
<path class="st0" d="M461.6,306.5c-3.3-13-10.5-23.2-23.4-27.7c-6.7-2.2-13.7-3.3-20.8-3.3c-37.5-0.3-75.1-0.1-112.6-0.1
	c-4.8,0-5-0.3-4.2-4.9c2.3-13.7,4.3-27.4,7-41.1c3.6-18.4,4.1-36.8-2-54.7c-5.5-16.1-11.8-32-17.8-47.9c-3.4-9-9.1-15.6-18.2-19.4
	c-17.2-7.2-34.2-7.1-50.7,1.5c-10.5,5.5-16.7,14.3-16.4,26.8c0.5,17.6,0.6,35.3,1.3,52.9c0.3,5.7-1,11.3-3.9,16.3
	c-13.6,23.4-26.8,47-41,70c-7.4,11.9-16.6,22.5-25.2,33.6c-0.3,0.4-0.6,0.8-1,1.1c0,15.9,0,31.8,0,47.7c0,60.2-0.2,120.5-0.5,180.7
	c11.6,7.4,24.1,10.7,38.2,10.6c64.1-0.4,128.1-0.2,192.2-0.2c11.1,0,22.1-0.7,32.9-4.2c21.3-7,34.7-23.5,36.4-45.8
	c0.6-8.5,0.3-16.9-2.8-25c-0.4-1.1,0.3-3.2,1.1-4.3c8.4-11.3,13.5-23.7,12.5-37.9c-0.3-4.9-1.8-9.8-3.4-14.5
	c-0.8-2.5-0.8-4.2,0.9-6.4c8-10.1,12.9-21.5,12.5-34.5c-0.2-6.1-2.4-12.1-3.6-18.2c-0.3-1.5-0.5-3.6,0.3-4.5
	c6.9-7.7,10.7-16.8,12.7-26.8c0.2-0.4,0.4-0.7,0.7-1v-14.1C462.5,309.7,462,308.1,461.6,306.5z"/>
</svg>
