<?xml version="1.0" encoding="utf-8"?>
<!-- Generator: Adobe Illustrator 19.0.0, SVG Export Plug-In . SVG Version: 6.00 Build 0)  -->
<svg version="1.1"
	 id="Layer_1" xmlns:svg="http://www.w3.org/2000/svg" xmlns:rdf="http://www.w3.org/1999/02/22-rdf-syntax-ns#" xmlns:dc="http://purl.org/dc/elements/1.1/" xmlns:cc="http://creativecommons.org/ns#" xmlns:sodipodi="http://sodipodi.sourceforge.net/DTD/sodipodi-0.dtd" xmlns:inkscape="http://www.inkscape.org/namespaces/inkscape"
	 xmlns="http://www.w3.org/2000/svg" xmlns:xlink="http://www.w3.org/1999/xlink" x="0px" y="0px" viewBox="-114 112.9 382.8 455.3"
	 style="enable-background:new -114 112.9 382.8 455.3;" xml:space="preserve">
<style type="text/css">
	.st0{fill:#373737;}
</style>
<g transform="translate(-195.97818,-315.98259)">
	<path class="st0" d="M247,429.1c-2.9,0.4-5.6,1.5-8.3,3.1c-10.5,6.4-13.8,20.1-7.4,30.6l19.7,32c18.6,16.8,30.6,40.1,33.4,65.1
		l2.2,18.8c-2.6,1.6-5.1,1.8-7.4,1.2l-2.2-19.2c-2.9-25.2-15.9-48.7-35.6-64.5l-56.5-45.1c-9.6-7.7-24.2-7.5-32.1,1.9
		c-8.3,9.7-6.9,24,3,31.9l57.8,46.2c10.7,8.5,17.7,21.1,19.2,34.6l0.6,4.7c-6.6-3.4-13.5-6.2-21-8.1c-42.5-10.6-87.5,6.3-112.3,42.4
		c-6,8.8-6,21.1,1.4,28.9c10.3,10.8,27.2,8.7,35-3c12.9-19.5,34.3-31.4,57.2-26.8c6,1.2,11.1,2.2,15.8,4.3
		c12.6,5,22.7,13.9,29.4,25.1c1,1.6,1.6,3.4,2.4,5c1.7,3.2,2.9,6.7,3.9,10.3c0.3,1.2,0.8,2.5,1,3.8c0.7,3.2,0.9,6.3,1.1,9.5
		c0.1,1.5,0.4,3,0.3,4.5c0,0.5-0.1,0.9-0.2,1.4c-0.2,3.7-0.7,7.6-1.6,11.3c-0.9,3.6-2.2,6.9-3.6,10.1c-0.3,0.7-0.6,1.5-1,2.2
		c-5.3,10.5-13.3,19.1-23.1,24.8c-23.2,13.9-55.7,12.6-80.1-14.4c-8-8.8-10.8-20.8-11.5-32.7c-0.8-13.8-14.1-23.7-28.2-20.2
		c-10,2.6-17.2,14.2-16.3,24.6c3.9,44.7,35.5,81.9,79.3,92.9c9.4,2.4,18.8,3.4,28,3.2c35.8-0.8,69.8,15.4,88.2,46.1l13.8,23.1
		c26.5,44.2,83.8,58.7,128.1,32.1c44.2-26.6,58.6-84,32-128.2l-68-113.5c-15.5-25.9-20.3-56-18.7-86.2c0-2.9,0-7.7,0-10.6l-3.2-54.3
		c-0.7-11.1-8.9-20.8-19.9-21.9c-14.1-1.4-25.5,10-24.7,23.5l3.3,55.3c0.4,7.5-1.5,15.2-5.6,22.3c3.6-22.7-0.9-45.4-12.3-63.9
		l-33.1-53.9C264.5,431.6,255.6,427.8,247,429.1L247,429.1z"/>
</g>
</svg>
