<?xml version="1.0" encoding="utf-8"?>
<!-- Generator: Adobe Illustrator 19.0.0, SVG Export Plug-In . SVG Version: 6.00 Build 0)  -->
<svg version="1.1"
	 id="Layer_1" xmlns:sodipodi="http://sodipodi.sourceforge.net/DTD/sodipodi-0.dtd" xmlns:inkscape="http://www.inkscape.org/namespaces/inkscape" xmlns:svg="http://www.w3.org/2000/svg" xmlns:dc="http://purl.org/dc/elements/1.1/" xmlns:rdf="http://www.w3.org/1999/02/22-rdf-syntax-ns#" xmlns:cc="http://creativecommons.org/ns#"
	 xmlns="http://www.w3.org/2000/svg" xmlns:xlink="http://www.w3.org/1999/xlink" x="0px" y="0px" viewBox="-234 360 58 48"
	 style="enable-background:new -234 360 58 48;" xml:space="preserve">
<style type="text/css">
	.st0{fill:#FFFFFF;}
</style>
<g transform="translate(0,-952.36218)">
	<path class="st0" d="M-214,1312.4l-4,8h-11.2c-2.6,0-4.8,2.1-4.8,4.8v30.4c0,2.7,2.1,4.8,4.8,4.8h48.4c2.6,0,4.8-2.1,4.8-4.8v-30.4
		c0-2.7-2.1-4.8-4.8-4.8H-192l-4-8H-214z M-205,1329.4c6.1,0,11,4.9,11,11s-4.9,11-11,11c-6.1,0-11-4.9-11-11
		S-211.1,1329.4-205,1329.4z"/>
</g>
</svg>
