<?xml version="1.0" encoding="utf-8"?>
<!-- Generator: Adobe Illustrator 19.0.0, SVG Export Plug-In . SVG Version: 6.00 Build 0)  -->
<svg version="1.1" xmlns="http://www.w3.org/2000/svg" xmlns:xlink="http://www.w3.org/1999/xlink" x="0px" y="0px"
	 viewBox="-303.8 514.3 31.6 30.9" style="enable-background:new -303.8 514.3 31.6 30.9;" xml:space="preserve">
<style type="text/css">
	.st0{fill:#373737;}
</style>
<g id="Layer_1">
	<path class="st0" d="M-302.5,527.6c0.7-0.6,0.9-1.5,0.5-2.3l-0.3-0.7c-0.5-1.1,0.2-2.4,1.3-2.8l0.8-0.2c0.9-0.2,1.5-1,1.5-1.9v-0.8
		c0.1-1.2,1.2-2.1,2.4-1.9l0.8,0.1c0.9,0.2,1.7-0.3,2.2-1l0.4-0.7c0.6-1.1,2-1.4,3-0.7l0.7,0.5c0.7,0.5,1.7,0.5,2.4,0l0.7-0.5
		c1-0.7,2.4-0.4,3,0.7l0.4,0.7c0.4,0.8,1.3,1.2,2.2,1l0.8-0.1c1.2-0.2,2.3,0.7,2.4,1.9v0.8c0,0.9,0.6,1.6,1.5,1.9l0.8,0.2
		c1.2,0.3,1.8,1.6,1.3,2.8l-0.3,0.7c-0.3,0.8-0.1,1.8,0.5,2.3l0.6,0.5c0.9,0.8,0.9,2.3,0,3.1l-0.6,0.5c-0.7,0.6-0.9,1.5-0.5,2.3
		l0.3,0.7c0.5,1.1-0.2,2.4-1.3,2.8l-0.8,0.2c-0.9,0.2-1.5,1-1.5,1.9v0.8c-0.1,1.2-1.2,2.1-2.4,1.9l-0.9,0.1c-0.9-0.2-1.7,0.3-2.2,1
		l-0.4,0.7c-0.6,1.1-2,1.4-3,0.7l-0.7-0.5c-0.7-0.5-1.7-0.5-2.4,0l-0.7,0.5c-1,0.7-2.4,0.4-3-0.7l-0.3-0.7c-0.4-0.8-1.3-1.2-2.2-1
		l-0.8,0.1c-1.2,0.2-2.3-0.7-2.4-1.9v-0.8c0-0.9-0.6-1.6-1.5-1.9l-0.8-0.3c-1.2-0.3-1.8-1.6-1.3-2.8l0.3-0.7
		c0.3-0.8,0.1-1.8-0.5-2.3l-0.6-0.5c-0.9-0.8-0.9-2.3,0-3.1L-302.5,527.6z M-297.4,529.7c0,5.2,4.2,9.4,9.4,9.4
		c5.2,0,9.4-4.2,9.4-9.4c0-5.2-4.2-9.4-9.4-9.4C-293.2,520.3-297.4,524.5-297.4,529.7z"/>
</g>
<g id="Layer_2">
	<g>
		<path class="st0" d="M-286.5,533.3h-2.5v2h-1.4v-2h-1.5v-1.2h1.5v-1h-1.5V530h1.5v-5.3h3.9c1.1,0,2,0.3,2.7,0.9
			c0.7,0.6,1,1.4,1,2.4c0,1-0.3,1.8-1,2.4c-0.6,0.6-1.6,0.8-2.7,0.9h-2.6v1h2.5V533.3z M-289,530h2.5c0.8,0,1.3-0.2,1.7-0.5
			s0.6-0.9,0.6-1.6c0-0.6-0.2-1.1-0.6-1.5s-1-0.6-1.7-0.6h-2.6V530z"/>
	</g>
</g>
</svg>
