<?xml version="1.0" encoding="utf-8"?>
<!-- Generator: Adobe Illustrator 19.0.0, SVG Export Plug-In . SVG Version: 6.00 Build 0)  -->
<svg version="1.1" id="Layer_1" xmlns="http://www.w3.org/2000/svg" xmlns:xlink="http://www.w3.org/1999/xlink" x="0px" y="0px"
	 viewBox="-47 79 508 508" style="enable-background:new -47 79 508 508;" xml:space="preserve">
<style type="text/css">
	.st0{fill:#373737;}
</style>
<g>
	<path class="st0" d="M410.2,180.6H3.8c-28,0-50.8,22.8-50.8,50.8c0,14,11.4,25.4,25.4,25.4s25.4-11.4,25.4-25.4h406.4l0,0
		c0,14,11.4,25.4,25.4,25.4s25.4-11.4,25.4-25.4C461,203.4,438.2,180.6,410.2,180.6z"/>
	<path class="st0" d="M-21.6,155.2c14,0,25.4-11.4,25.4-25.4h406.4l0,0c0,14,11.4,25.4,25.4,25.4s25.4-11.4,25.4-25.4
		c0-28-22.8-50.8-50.8-50.8H3.8c-28,0-50.8,22.8-50.8,50.8C-47,143.8-35.6,155.2-21.6,155.2z"/>
	<path class="st0" d="M410.2,282.2H3.8c-28,0-50.8,22.8-50.8,50.8v203.2c0,28,22.8,50.8,50.8,50.8h406.4c28,0,50.8-22.8,50.8-50.8
		V333C461,305,438.2,282.2,410.2,282.2z M323,387.8c-8.1-6.1-19.4-5.3-26.5,1.9l-75.2,89.7c-7.9,7.9-20.7,7.9-28.7,0l-50.4-65.6
		c-6.6-6.6-16.8-7.8-24.8-3l-113.8,72V333H410v122.3L323,387.8z"/>
	<circle class="st0" cx="54.6" cy="383.8" r="25.4"/>
</g>
</svg>
