<?xml version="1.0" encoding="utf-8"?>
<!-- Generator: Adobe Illustrator 19.0.0, SVG Export Plug-In . SVG Version: 6.00 Build 0)  -->
<svg version="1.1" id="Layer_1" xmlns="http://www.w3.org/2000/svg" xmlns:xlink="http://www.w3.org/1999/xlink" x="0px" y="0px"
	 viewBox="-236.8 335.5 63.6 97" style="enable-background:new -236.8 335.5 63.6 97;" xml:space="preserve">
<style type="text/css">
	.st0{fill:#373737;}
</style>
<path class="st0" d="M-175.8,362.5c-1.3-1.2-1.8-3.1-1.1-4.7l0.6-1.5c1-2.3-0.3-4.9-2.7-5.6l-1.6-0.4c-1.7-0.5-2.9-2-3-3.8l-0.1-1.6
	c0-2.5-2.3-4.3-4.7-3.9l-1.6,0.3c-1.8,0.3-3.5-0.5-4.3-2.1l-0.8-1.4c-1.2-2.2-4-2.8-6-1.4l-1.3,0.9c-1.4,1-3.4,1-4.8,0l-1.3-1
	c-2-1.5-4.9-0.8-6.1,1.4l-0.8,1.4c-0.9,1.6-2.6,2.4-4.4,2.1l-1.6-0.3c-2.5-0.4-4.7,1.4-4.9,3.9l-0.1,1.6c-0.1,1.8-1.3,3.3-3,3.8
	l-1.6,0.4c-2.4,0.7-3.7,3.3-2.7,5.6l0.6,1.5c0.7,1.6,0.2,3.5-1.1,4.7l-1.2,1.1c-1.9,1.6-1.9,4.6,0,6.2l1.2,1.1
	c1.3,1.2,1.8,3.1,1.1,4.7l-0.7,1.5c-1,2.3,0.3,4.9,2.7,5.6l1.6,0.4c1.7,0.5,2.9,2,3,3.8l0.1,1.6c0.1,2.5,2.4,4.3,4.8,3.9l1.6-0.3
	c1.8-0.3,3.5,0.5,4.3,2.1l0.8,1.4c1.2,2.2,4,2.8,6,1.4l1.3-0.9c1.4-1,3.4-1,4.8,0l1.3,1c2,1.5,4.9,0.8,6.1-1.4l0.8-1.4
	c0.9-1.6,2.6-2.4,4.4-2.1l1.6,0.3c2.5,0.4,4.7-1.4,4.9-3.9l0.1-1.6c0.1-1.8,1.3-3.3,3-3.8l1.6-0.4c2.4-0.7,3.7-3.3,2.7-5.6l-0.6-1.5
	c-0.7-1.6-0.2-3.5,1.1-4.7l1.2-1.1c1.9-1.6,1.9-4.6,0-6.2L-175.8,362.5z M-205,385.5c-10.4,0-18.9-8.4-18.9-18.9
	c0-10.4,8.4-18.9,18.9-18.9c10.4,0,18.9,8.4,18.9,18.9S-194.6,385.5-205,385.5z M-197.7,357l4.5,4.5l-10.3,10.3l-4.5,4.5l-4.5-4.5
	l-4.3-4.3l4.5-4.5l4.3,4.3L-197.7,357z M-214.9,431.4v-28.2c1.2,0.4,2.4,0.7,3.7,0.7c2.2,0,4.2-0.7,6-1.9l0.1-0.1l0.1,0.1
	c1.8,1.3,3.9,2,6,2c1.3,0,2.6-0.3,3.8-0.8v28.3c0,0.9-1,1.3-1.7,0.8l-7.9-6.4c-0.2-0.2-0.6-0.2-0.9,0l-7.7,6.3
	C-213.9,432.7-214.9,432.3-214.9,431.4z"/>
</svg>
