<?xml version="1.0" encoding="utf-8"?>
<!-- Generator: Adobe Illustrator 19.0.0, SVG Export Plug-In . SVG Version: 6.00 Build 0)  -->
<svg version="1.1" id="Layer_1" xmlns="http://www.w3.org/2000/svg" xmlns:xlink="http://www.w3.org/1999/xlink" x="0px" y="0px"
	 viewBox="-259 348 91.7 98" style="enable-background:new -259 348 91.7 98;" xml:space="preserve">
<style type="text/css">
	.st0{fill:#DA3B53;}
</style>
<path class="st0" d="M-213.7,484.1l-21.3,24.5c-2.8,3.3-7,5.1-11.3,5.1h-32.1l-5.6,5.6l-19.9-19.4l14.3-14.2
	c5.9-5.9,14.6-7.8,22.5-5.1l3.1,1.1h19.2c3.3,0,6.1,2.7,6.1,6.1c0,0.1,0,0.1,0,0.2c-0.2,3.3-3,5.9-6.3,5.9h-11.6
	c-1.3-0.1-2.4,0.9-2.5,2.2s0.9,2.4,2.2,2.5c0.1,0,0.2,0,0.3,0h11.6c5.9,0,10.7-4.6,11-10.4v-0.1l10.7-12c2.3-2.6,6.2-3,8.9-0.9
	C-211.7,477.4-211.3,481.4-213.7,484.1C-213.6,484-213.6,484.1-213.7,484.1z M-222,431.9v1.3c0,1.4,0,2.8,0.1,4.3
	c0.1,6.7,0.3,14.6-2,22c-4,12.6-17.5,19.7-30.1,15.7c-7.5-2.4-13.3-8.2-15.7-15.7c-2.3-7.4-2.2-15.3-2-22c0-1.5,0.1-3,0.1-4.3v-1.3
	c0-1,0.8-1.9,1.9-1.9h1.3c8.2,0,14.3-2.3,19.5-7.3l0.9-0.9c0.7-0.7,1.9-0.7,2.6,0l0.9,0.9c5.2,5.1,11.2,7.3,19.4,7.3h1.3
	C-222.8,430-222,430.9-222,431.9z M-235.5,443.6l-2.5-2.5c-0.6-0.6-1.7-0.6-2.3,0l-9.3,9.3l-3.6-3.6c-0.7-0.6-1.7-0.6-2.3,0
	l-2.5,2.5c-0.6,0.6-0.6,1.7,0,2.3l7.3,7.3c0.6,0.6,1.7,0.6,2.3,0l13-13C-234.9,445.3-234.9,444.2-235.5,443.6L-235.5,443.6z"/>
</svg>
