<?xml version="1.0" encoding="utf-8"?>
<!-- Generator: Adobe Illustrator 19.0.0, SVG Export Plug-In . SVG Version: 6.00 Build 0)  -->
<svg version="1.1" id="Layer_1" xmlns="http://www.w3.org/2000/svg" xmlns:xlink="http://www.w3.org/1999/xlink" x="0px" y="0px"
	 viewBox="-256 348.1 98 97.9" style="enable-background:new -256 348.1 98 97.9;" xml:space="preserve">
<style type="text/css">
	.st0{fill:#DA3B53;}
</style>
<path class="st0" d="M-206,511.4v3.1c0,2.6-2,4.8-4.7,4.9h-0.1h-88.4c-2.6,0-4.8-2.1-4.8-4.8c0,0,0,0,0-0.1v-3.2
	c0-2.6,2.1-4.8,4.8-4.8h88.4C-208.1,506.6-206,508.8-206,511.4z M-296.1,486.7h2.8v9.1c0,2.4,1.9,4.3,4.3,4.3l0,0h8.2
	c2.4,0,4.3-1.9,4.3-4.3l0,0v-9.1h2.8c1,0,2-0.4,2.7-1.2c1.1-1.2,1.1-3,0.2-4.3l-11.3-15.9c-1.1-1.5-3.2-1.9-4.8-0.8
	c-0.3,0.2-0.6,0.5-0.8,0.8l-11.3,16c-1,1.3-0.8,3.2,0.3,4.3C-298,486.3-297.1,486.7-296.1,486.7z M-259.1,500.1h8.2
	c2.4,0,4.3-1.9,4.3-4.3l0,0v-51.7h2.8c1,0,2-0.4,2.7-1.2c1.1-1.2,1.2-3,0.2-4.3l-11.3-15.7c-1.1-1.6-3.3-1.9-4.8-0.8
	c-0.3,0.2-0.6,0.5-0.8,0.8l-11.3,15.8c-0.9,1.2-0.9,2.8,0,4c0.7,0.9,1.8,1.5,3,1.4h2.8v51.6C-263.4,498.1-261.5,500.1-259.1,500.1
	L-259.1,500.1z M-225.1,451.4c-1.1,0-2.1,0.5-2.8,1.4l-11.3,15.8c-0.9,1.2-0.9,2.8,0,4c0.7,0.9,1.8,1.5,3,1.4h2.8v21.6
	c0,2.4,1.9,4.3,4.3,4.3l0,0h8.1c2.4,0,4.3-1.9,4.3-4.3l0,0v-21.5h2.8c1,0,2-0.4,2.7-1.2c1-1.2,1.1-3,0.2-4.3l-11.3-15.8
	C-223,452-224,451.5-225.1,451.4L-225.1,451.4z"/>
</svg>
