<?xml version="1.0" encoding="utf-8"?>
<!-- Generator: Adobe Illustrator 19.0.0, SVG Export Plug-In . SVG Version: 6.00 Build 0)  -->
<svg version="1.1" id="Layer_1" xmlns="http://www.w3.org/2000/svg" xmlns:xlink="http://www.w3.org/1999/xlink" x="0px" y="0px"
	 viewBox="-34.1 73.3 70.4 98" style="enable-background:new -34.1 73.3 70.4 98;" xml:space="preserve">
<style type="text/css">
	.st0{fill:#DA3B53;}
</style>
<title>Artboard 11</title>
<path class="st0" d="M10.1,111.6c4.8,3,10.9,0,10.9,0l5.6,3.7c2.1,1.4,5,0.7,6.3-1.4l2.5-4.4c1.3-2,0.9-4.6-0.9-6.1L21.6,92.6
	l-0.8-3c-0.4-1.6-1.6-2.9-3.1-3.7l-8.8-4.1l1-7.3c0-0.7-0.5-1.2-1.2-1.2c-0.1,0-0.2,0-0.2,0C3,74.4,0.2,79-1.1,82.7
	C-27.9,91.5-29,119.8-24,136.3h-5.4c-2.7,0.1-4.8,2.4-4.7,5.1c0.1,2.5,2.1,4.5,4.7,4.7h4.4c0,0.2-0.1,0.3-0.1,0.5
	c-0.3,1.8-1.4,3.4-3.1,4.2l-0.6,0.3c-1.5,0.7-2.5,2.2-2.5,3.9v10.4c0,3.3,2.6,5.9,5.9,5.9h52.7c3.3,0,5.9-2.6,5.9-5.9V155
	c0-1.7-1-3.2-2.5-3.9l-0.6-0.3c-1.7-0.8-2.9-2.4-3.1-4.2c0-0.2-0.1-0.3-0.1-0.5H30c2.7,0.1,5-2,5.1-4.7c0.1-2.7-2-5-4.7-5.1
	c-0.1,0-0.3,0-0.4,0h-6.9c-1.4-5.4-4.5-8.8-10.7-13.9C4.7,116.2,10.1,111.6,10.1,111.6z M19,150.1c1,3,2.9,5.7,5.6,7.4v5.1h-47.2
	v-5.1c2.7-1.8,4.6-4.4,5.6-7.5H19z"/>
</svg>
