<?xml version="1.0" encoding="utf-8"?>
<!-- Generator: Adobe Illustrator 19.0.0, SVG Export Plug-In . SVG Version: 6.00 Build 0)  -->
<svg version="1.1"
	 id="Layer_1" xmlns:rdf="http://www.w3.org/1999/02/22-rdf-syntax-ns#" xmlns:inkscape="http://www.inkscape.org/namespaces/inkscape" xmlns:sodipodi="http://sodipodi.sourceforge.net/DTD/sodipodi-0.dtd" xmlns:svg="http://www.w3.org/2000/svg" xmlns:dc="http://purl.org/dc/elements/1.1/" xmlns:cc="http://creativecommons.org/ns#"
	 xmlns="http://www.w3.org/2000/svg" xmlns:xlink="http://www.w3.org/1999/xlink" x="0px" y="0px" viewBox="-44 77.3 90 90"
	 style="enable-background:new -44 77.3 90 90;" xml:space="preserve">
<style type="text/css">
	.st0{fill:#DA3B53;}
</style>
<g transform="translate(0,-952.36218)">
	<path class="st0" d="M1,1029.7c-24.8,0-45,20.2-45,45c0,24.8,20.2,45,45,45s45-20.2,45-45S25.8,1029.7,1,1029.7L1,1029.7z
		 M1,1033.7c22.7,0,41,18.3,41,41c0,22.7-18.3,41-41,41s-41-18.3-41-41S-21.7,1033.7,1,1033.7z M1,1042.7c-17.6,0-32,14.4-32,32
		c0,17.6,14.4,32,32,32s32-14.4,32-32C33,1057,18.6,1042.7,1,1042.7L1,1042.7z M1,1046.7c15.5,0,28,12.5,28,28c0,15.5-12.5,28-28,28
		s-28-12.5-28-28C-27,1059.2-14.5,1046.7,1,1046.7L1,1046.7z M1,1058.7c-8.8,0-16,7.2-16,16s7.2,16,16,16s16-7.2,16-16
		S9.8,1058.7,1,1058.7z"/>
</g>
</svg>
