<?xml version="1.0" encoding="utf-8"?>
<svg version="1.1" id="Layer_1" xmlns="http://www.w3.org/2000/svg" xmlns:xlink="http://www.w3.org/1999/xlink" x="0px" y="0px"
	 viewBox="-254 335 98 98" style="enable-background:new -254 335 98 98;" xml:space="preserve">
<style type="text/css">
	.st0{fill:#DA3B53;}
</style>
<title>Artboard 10</title>
<path class="st0" d="M-249.3,392.7l7.3,1.3c0.9,3.2,2.1,6.3,3.8,9.1l-4.3,6.1c-1.6,2.2-1.3,5.3,0.6,7.2l4.4,4.4
	c1.9,1.9,5,2.2,7.2,0.6l6.1-4.3c2.9,1.6,5.9,2.9,9.1,3.8l1.3,7.3c0.5,2.7,2.8,4.7,5.6,4.7h6.2c2.7,0,5.1-2,5.6-4.7l1.3-7.3
	c3.2-0.9,6.3-2.1,9.1-3.8l6.1,4.3c2.2,1.6,5.3,1.3,7.2-0.6l4.4-4.4c1.9-1.9,2.2-5,0.6-7.2l-4.3-6.1c1.7-2.9,2.9-5.9,3.8-9.1l7.3-1.3
	c2.7-0.5,4.7-2.8,4.7-5.6v-6.2c0-2.7-2-5.1-4.7-5.6l-7.3-1.3c-0.9-3.2-2.1-6.3-3.8-9.1l4.3-6.1c1.6-2.2,1.3-5.3-0.6-7.2l-4.4-4.4
	c-1.9-1.9-5-2.2-7.2-0.6l-6.1,4.3c-2.9-1.7-5.9-2.9-9.1-3.8l-1.3-7.3c-0.5-2.7-2.8-4.7-5.6-4.7h-6.2c-2.7,0-5.1,2-5.6,4.7l-1.3,7.3
	c-3.2,0.9-6.3,2.1-9.1,3.8l-6.1-4.3c-2.2-1.6-5.3-1.3-7.2,0.6l-4.4,4.4c-1.9,1.9-2.2,5-0.6,7.2l4.3,6.1c-1.7,2.9-2.9,5.9-3.8,9.1
	l-7.3,1.3c-2.7,0.5-4.7,2.8-4.7,5.6v6.2C-254,389.9-252,392.2-249.3,392.7z M-205,360.6c6.1,0,11.1,5,11.1,11.1
	c0,6.1-5,11.1-11.1,11.1s-11.1-5-11.1-11.1C-216.1,365.6-211.1,360.6-205,360.6z M-222,389c1.8-2,4.4-3.2,7.1-3.2h3.2
	c0.4,0,0.7,0.2,0.9,0.4l5.4,6.8c0.2,0.2,0.4,0.2,0.6,0l5.4-6.7c0.2-0.3,0.5-0.4,0.9-0.4h3.4c5.3,0,9.5,4.3,9.5,9.5
	c0,0.4,0,0.7-0.1,1.1l0,0l-0.1,1.1c-0.8,1.1-1.6,2.1-2.6,3.1c-9.1,9.2-23.8,9.2-33,0.2c-1-1-1.9-2.1-2.8-3.3l-0.1-1.1
	C-224.6,393.7-223.8,391-222,389z"/>
</svg>
