<?xml version="1.0" encoding="utf-8"?>
<svg version="1.1" id="Layer_1" xmlns="http://www.w3.org/2000/svg" xmlns:xlink="http://www.w3.org/1999/xlink" x="0px" y="0px"
	 viewBox="-1702 1367.4 12 19.9" style="enable-background:new -1702 1367.4 12 19.9;" xml:space="preserve">
<style type="text/css">
	.st0{fill:#fff;}
</style>
<path class="st0" d="M-1690,1381.4h-2.3l-1.6-6.9c0.6-0.6,0.9-1.3,0.9-2.1c0-1.3-0.8-2.4-2-2.8v-2.2h-2v2.2c-1.2,0.4-2,1.5-2,2.8
	c0,0.8,0.3,1.5,0.8,2.1l-1.5,6.9h-2.3v2h1.8l-0.8,3.5l2,0.4l0.9-4h4.3l0.9,4l2-0.4l-0.9-3.5h1.8L-1690,1381.4L-1690,1381.4z
	 M-1696,1371.4c0.6,0,1,0.4,1,1s-0.4,1-1,1s-1-0.4-1-1S-1696.6,1371.4-1696,1371.4z M-1697.7,1381.4l1.4-6c0.1,0,0.2,0,0.3,0
	s0.2,0,0.3,0l1.4,6H-1697.7z"/>
</svg>
