<?xml version="1.0" encoding="utf-8"?>
<svg version="1.1" id="Layer_1" xmlns="http://www.w3.org/2000/svg" xmlns:xlink="http://www.w3.org/1999/xlink" x="0px" y="0px"
	 viewBox="-252.6 336.4 95.3 94.9" style="enable-background:new -252.6 336.4 95.3 94.9;" xml:space="preserve">
<style type="text/css">
	.st0{fill:#fff;}
</style>
<path class="st0" d="M-165.8,373.8c-1.6-2-10.2-13.5-18.2-3.9c-8,9.6-10.9,13.1-13.8,11c-0.2-0.1-0.3-0.2-0.5-0.3
	c-0.5-1-1.3-1.9-2.2-2.5c1.4-2.1,3.8-5.5,5.4-6.8c2.3-2,23.9-20.9,13.5-31.1c-10.4-10.2-33.2,4-35.1,5.6
	c-1.9,1.6-13.2,10.6-3.4,18.3c9.8,7.7,13.4,10.5,11.4,13.4c-0.1,0.2-0.2,0.3-0.3,0.5c-0.6,0.4-1.1,0.9-1.5,1.4c-2-1.4-5.8-4-7.3-5.7
	c-2-2.3-20.9-23.9-31.1-13.5c-10.2,10.4,4,33.2,5.6,35.1c1.6,1.9,10.6,13.2,18.3,3.4c7.7-9.8,10.5-13.4,13.4-11.4
	c0.2,0.1,0.3,0.2,0.4,0.3c0.3,0.5,0.7,1,1.1,1.5c-1.3,1.8-4.4,6.1-6.3,7.6c-2.4,2-24.5,20.2-14.4,30.7c10.1,10.5,33.3-3,35.3-4.6
	c2-1.6,13.5-10.2,3.9-18.2c-9.5-7.9-13.1-10.9-11.1-13.7c1.3-0.4,2.4-1.2,3.2-2.2c1.9,1.4,5.9,4.3,7.3,6c2,2.4,20.2,24.5,30.7,14.4
	C-150.7,399-164.2,375.8-165.8,373.8z M-204.8,386.7c-1.6,0-2.8-1.3-2.8-2.8c0-1.6,1.3-2.8,2.8-2.8s2.8,1.3,2.8,2.8
	C-202,385.5-203.2,386.7-204.8,386.7z"/>
</svg>
