<?xml version="1.0" encoding="utf-8"?>
<svg version="1.1" id="Layer_1" xmlns="http://www.w3.org/2000/svg" xmlns:xlink="http://www.w3.org/1999/xlink" x="0px" y="0px"
	 viewBox="-250.6 345.1 72.1 81.1" style="enable-background:new -250.6 345.1 72.1 81.1;" xml:space="preserve">
<style type="text/css">
	.st0{fill:#fff;}
</style>
<path class="st0" d="M-178.5,387.1c0,6.8-6.9,12.2-7.4,11.2c-5-10.3-9.5-9-13.6-6.9c-3.5,1.9-3.9,8.2-3.1,8.5
	c0.5,0.2,8.9-0.1,8.9-0.1c-0.1,1-0.1,6.1-0.1,6.1c-2.4,0-14.2,0-14.2,0c-0.2,8.8,8.7,5.6,8.6,6.5c-0.8,8.1-8.6,4-8.6,4
	c-1,10-6.6,9.7-6.6,9.7s-5.4,0.3-6.5-9.7c0,0-7.7,4.1-8.6-4c-0.1-0.9,8.9,2.4,8.7-6.5c0,0-11.8,0-14.2,0c0,0-0.1-5-0.1-6.1
	c0,0,8.3,0.3,8.9,0.1c0.8-0.4,0.4-6.7-3.1-8.5c-4.1-2.2-8.6-3.4-13.6,6.9c-0.5,1-7.4-4.4-7.4-11.2c0-5.4,5.8-12.4,12.3-12.1
	c4,0.2,8.3,1.6,11.1,4.8c5,5.8,5.4,15,5.8,20.4l3.2,0.1c0.5-3.6-1.2-13.6-1.3-15.6c-0.2-4.1-6.6-8.9-7.3-19.2
	c-0.7-10.5,9.7-19.7,12.2-20.5c2.7,0.7,13,9.9,12.3,20.5c-0.7,10.3-7.1,15.1-7.2,19.2c-0.1,2-1.8,12-1.3,15.6l3.2-0.1
	c0.5-5.4,0.8-14.6,5.8-20.4c2.8-3.2,7.1-4.6,11.1-4.8C-184.4,374.7-178.5,381.7-178.5,387.1z"/>
</svg>
