<?xml version="1.0" encoding="utf-8"?>
<svg version="1.1" id="Layer_1" xmlns="http://www.w3.org/2000/svg" xmlns:xlink="http://www.w3.org/1999/xlink" x="0px" y="0px"
	 viewBox="-538.5 714.4 71 70.4" style="enable-background:new -538.5 714.4 71 70.4;" xml:space="preserve">
<style type="text/css">
	.st0{fill:#fff;}
</style>
<path class="st0" d="M-497,728.8c-2.8-0.6-4.9-2.2-6.5-4.6c-0.8-1.2-1.8-2.3-2.9-3.1c-2-1.4-4.1-2.6-6.3-3.7
	c-6.7-3.2-13.6-4-20.7-1.7c-0.1,0-0.3,0.1-0.4,0.2c-0.8,0.7-0.4,1.9,0.7,2c0.1,0,0.2,0,0.3,0c3-0.3,5.9-0.1,8.7,1.3
	c5.1,2.7,6.3,7.2,3.1,12c-0.6,0.9-1.2,1.7-1.8,2.6c-0.4,0.6-0.4,1.2-0.2,1.8c0.2,0.4,0.2,0.8-0.1,1.1c-4.9,7.2-9.8,14.3-14.7,21.4
	c0,0.1-0.1,0.1-0.1,0.2c-0.8,1-0.7,2.3,0.1,3.2c1.2,1.3,2.5,2.4,4.2,3c1.2,0.4,1.9,0.3,2.8-0.9c5-7.3,10.1-14.6,15.1-21.9
	c0.2-0.3,0.5-0.5,0.9-0.5c0.4,0,0.8-0.2,1.1-0.5c0.9-0.9,1.8-1.8,2.8-2.3c1.4-0.8,3.1-1.4,4.6-1.2c1,0.1,1.9,0.9,2.8,1.7
	c0.6,0.5,1.4,0.4,1.9-0.3l5.5-7.8C-495.7,730.1-496.1,729-497,728.8z"/>
<path class="st0" d="M-493.4,730.1c0.4-0.6,1.2-0.7,1.8-0.3c0.3,0.2,0.6,0.4,0.9,0.6c1.1,0.9,1.4,2,0.6,3.2
	c-2.2,3.2-4.3,6.3-6.6,9.4c-1.1,1.5-2.2,1.4-4.1-0.1c-0.5-0.4-0.6-1.2-0.2-1.7L-493.4,730.1z"/>
<path class="st0" d="M-470,766.7h-17.2c-1.4,0-2.5-1.1-2.5-2.5v-7.6c0-1.4,1.1-2.5,2.5-2.5h17.2c1.4,0,2.5,1.1,2.5,2.5v7.6
	C-467.5,765.6-468.6,766.7-470,766.7z"/>
<path class="st0" d="M-497.6,766.7h-17.2c-1.4,0-2.5-1.1-2.5-2.5v-7.6c0-1.4,1.1-2.5,2.5-2.5h17.2c1.4,0,2.5,1.1,2.5,2.5v7.6
	C-495.1,765.6-496.2,766.7-497.6,766.7z"/>
<path class="st0" d="M-485.4,784.8h-17.2c-1.4,0-2.5-1.1-2.5-2.5v-7.6c0-1.4,1.1-2.5,2.5-2.5h17.2c1.4,0,2.5,1.1,2.5,2.5v7.6
	C-482.9,783.7-484,784.8-485.4,784.8z"/>
<path class="st0" d="M-511.9,784.8h-17.2c-1.4,0-2.5-1.1-2.5-2.5v-7.6c0-1.4,1.1-2.5,2.5-2.5h17.2c1.4,0,2.5,1.1,2.5,2.5v7.6
	C-509.4,783.7-510.5,784.8-511.9,784.8z"/>
</svg>
