<?xml version="1.0" encoding="utf-8"?>
<svg version="1.1" id="Layer_1" xmlns="http://www.w3.org/2000/svg" xmlns:xlink="http://www.w3.org/1999/xlink" x="0px" y="0px"
	 viewBox="-234.5 357.9 58.9 61" style="enable-background:new -234.5 357.9 58.9 61;" xml:space="preserve">
<style type="text/css">
	.st0{fill:#fff;}
</style>
<path class="st0" d="M-178.1,395c0.6-2.1,0.9-4.3,0.9-6.6c0-2.3-0.3-4.5-0.9-6.6c3-3.2,3.5-8.2,0.8-12c-1.8-2.4-4.6-3.9-7.6-3.9
	c-1.4,0-2.8,0.3-4,0.9c-3.7-2.4-8-3.8-12.6-4.1c-1.6-3-4.7-4.9-8.2-4.9c-1,0-2,0.2-2.9,0.5c-4.4,1.4-7,5.7-6.4,10.1
	c-3.4,2.8-6.1,6.5-7.8,10.7c-4.3,0.8-7.7,4.6-7.7,9.2c0,4.6,3.3,8.4,7.7,9.2c1.6,4.2,4.3,7.9,7.8,10.7c-0.6,4.4,2,8.7,6.4,10.1
	c0.9,0.3,1.9,0.5,2.9,0.5c3.5,0,6.6-1.9,8.2-4.9c4.6-0.2,8.9-1.7,12.6-4.1c1.2,0.6,2.6,0.9,4,0.9c3,0,5.8-1.4,7.6-3.9
	C-174.6,403.2-175.1,398.2-178.1,395z M-181.5,403.9c-1.3,1.8-4,2.2-5.8,0.9c-1.9-1.4-2.3-4-0.9-5.8c0.8-1.1,2-1.7,3.4-1.7
	c0.9,0,1.7,0.3,2.4,0.8C-180.6,399.4-180.2,402-181.5,403.9z M-181.5,372.9c1.4,1.9,0.9,4.5-0.9,5.8c-1.8,1.3-4.5,0.9-5.8-0.9
	c-1.4-1.9-0.9-4.5,0.9-5.8c0.7-0.5,1.6-0.8,2.4-0.8C-183.6,371.1-182.3,371.8-181.5,372.9z M-209.7,363.1c1.8,0,3.4,1.2,4,2.9
	c0.3,1.1,0.3,2.2-0.3,3.2c-0.5,1-1.4,1.7-2.4,2.1c-2.2,0.7-4.6-0.5-5.3-2.7c-0.7-2.2,0.5-4.5,2.7-5.3
	C-210.6,363.2-210.2,363.1-209.7,363.1z M-229.2,388.4c0-2.3,1.9-4.2,4.2-4.2c2.3,0,4.2,1.9,4.2,4.2c0,2.3-1.9,4.2-4.2,4.2
	C-227.4,392.5-229.2,390.7-229.2,388.4z M-221.4,397c3.4-1.4,5.7-4.8,5.7-8.6c0-3.9-2.4-7.2-5.7-8.6c1.1-2.4,2.7-4.5,4.6-6.3
	c1.7,2,4.3,3.2,7.1,3.2c1,0,2-0.2,2.9-0.5c2.4-0.8,4.3-2.4,5.5-4.7c0.6-1.1,0.9-2.3,1-3.4c2.7,0.3,5.2,1.2,7.4,2.4
	c-1.9,3.1-1.8,7.2,0.4,10.4c1.8,2.4,4.6,3.9,7.6,3.9c0.7,0,1.4-0.1,2.1-0.3c0.2,1.3,0.4,2.6,0.4,3.9c0,1.3-0.1,2.7-0.4,3.9
	c-0.7-0.2-1.4-0.3-2.1-0.3c-3,0-5.8,1.4-7.6,3.9c-2.3,3.1-2.3,7.2-0.4,10.4c-2.2,1.3-4.8,2.1-7.4,2.4c-0.1-1.2-0.4-2.4-1-3.4
	c-1.1-2.2-3.1-3.9-5.5-4.7c-0.9-0.3-1.9-0.5-2.9-0.5c-2.8,0-5.3,1.2-7.1,3.2C-218.7,401.5-220.3,399.4-221.4,397z M-211,413.4
	c-2.2-0.7-3.4-3.1-2.7-5.3c0.6-1.7,2.2-2.9,4-2.9c0.4,0,0.9,0.1,1.3,0.2c1.1,0.3,1.9,1.1,2.4,2.1c0.5,1,0.6,2.1,0.3,3.2
	C-206.5,412.9-208.9,414.1-211,413.4z"/>
</svg>
